<svg width="272" height="76" viewBox="0 0 272 76" fill="none" xmlns="http://www.w3.org/2000/svg">
<path d="M67.9738 41.7622C67.1166 46.1411 65.5469 50.0449 63.0228 53.2815L58.834 50.2824C62.2131 45.856 63.4979 40.4775 63.4979 34.0517H68.6389C68.6389 34.9089 68.5914 35.7661 68.5439 36.6212H79.4436V50.5199C79.4436 61.9917 73.2553 67.5128 66.402 69.5597L64.2126 64.8958C70.8759 62.6589 74.3046 58.7551 74.3046 50.5199V41.7622H67.9738Z" fill="#3A3A3A"/>
<path d="M90.0557 36.6212V52.8994H84.8672V36.6212H90.0557ZM89.4836 64.8958C97.4812 60.517 97.6237 53.7566 97.6237 36.6212H102.765C102.765 56.0886 101.718 64.0862 91.673 69.5598L89.4836 64.8958Z" fill="#3A3A3A"/>
<path d="M105.406 67.4178V62.2768H127.065V67.4178H105.406ZM107.833 36.6212H124.636V41.7622H107.833V36.6212Z" fill="#3A3A3A"/>
<path d="M134.891 40.4754V49.9478H129.75V40.4754H134.891ZM134.273 65.8935C142.889 58.468 144.316 51.8522 144.698 46.1865H149.792C149.792 53.8495 146.27 62.1797 137.892 69.5577L134.276 65.8914L134.273 65.8935ZM141.984 49.9478H136.843V40.4754H141.984V49.9478Z" fill="#3A3A3A"/>
<path d="M161.247 41.7622C160.39 46.1411 158.82 50.0449 156.296 53.2815L152.107 50.2824C155.487 45.856 156.771 40.4775 156.771 34.0517H161.912C161.912 34.9089 161.865 35.7661 161.817 36.6212H172.717V50.5199C172.717 61.9917 166.529 67.5128 159.675 69.5597L157.486 64.8958C164.149 62.6589 167.578 58.7551 167.578 50.5199V41.7622H161.247Z" fill="#3A3A3A"/>
<path d="M193.297 36.6212C193.297 43.9517 192.534 49.7578 191.06 54.4713L198.962 66.8002L194.631 69.5618L188.585 60.1369C185.968 64.7058 182.254 67.6574 177.543 69.5618L175.354 64.8979C184.064 60.8041 187.348 53.4736 188.015 41.7643H176.923V36.6233H193.299L193.297 36.6212Z" fill="#3A3A3A"/>
<path d="M208.424 34.0496C208.424 34.9068 208.377 35.764 208.329 36.6191H219.229V50.5179C219.229 61.9897 213.041 67.5108 206.138 69.5577L203.996 64.8938C209.137 63.1794 212.373 60.4674 213.563 55.4689L206.375 52.8973L208.137 48.0413L214.088 50.2308V41.7581H207.757C206.9 46.1845 205.33 50.0883 202.759 53.3724L198.617 50.3733C201.996 45.9469 203.234 40.5684 203.234 34.0476H208.422L208.424 34.0496Z" fill="#3A3A3A"/>
<path d="M233.017 48.093C230.4 49.6628 227.733 50.807 224.164 51.8543L222.689 46.9508C230.02 44.7138 236.683 39.7153 240.73 34.0517L244.871 37.0508C243.014 39.3828 240.682 42.0493 238.16 44.2863V69.5618H233.019V48.095L233.017 48.093Z" fill="#3A3A3A"/>
<path d="M253.531 44.6168C253.531 56.5636 252.578 61.7522 247.342 69.5598L243.059 66.7507C248.39 58.9926 248.39 54.3742 248.39 44.6168H253.531ZM262.908 62.8014C264.622 61.8017 266.05 60.327 267.859 57.6129L272 60.6595C268.716 65.3234 264.86 69.0372 257.767 69.5598V36.6212H262.908V62.8014Z" fill="#3A3A3A"/>
<path d="M55.2089 25.6513H50.3488V20.7932C50.3488 20.25 49.9088 19.808 49.3635 19.808H40.1431C39.5999 19.808 39.1579 20.248 39.1579 20.7932V25.6534H34.2977C33.7545 25.6534 33.3125 26.0933 33.3125 26.6386V35.859C33.3125 36.4022 33.7524 36.8443 34.2977 36.8443H39.1579V41.7044C39.1579 42.2476 39.5978 42.6896 40.1431 42.6896H49.3635C49.9067 42.6896 50.3488 42.2497 50.3488 41.7044V36.8443H55.2089C55.7521 36.8443 56.1941 36.4043 56.1941 35.859V26.6386C56.1941 26.0954 55.7542 25.6534 55.2089 25.6534V25.6513Z" fill="#1FA2EA"/>
<path d="M11.1888 47.746C12.6016 41.3243 18.3355 36.5034 25.1743 36.5034V25.6513C11.2714 25.6513 0 36.9227 0 50.8256C0 52.0856 0.0929476 53.3228 0.272646 54.5311H4.40572V47.746H11.1888Z" fill="#3A3A3A"/>
<path d="M39.4991 50.8256C39.4991 58.7241 33.0734 65.1499 25.1749 65.1499C18.3381 65.1499 12.8025 60.2319 11.1914 54.5332H4.40624V58.7696H8.64259V63.0059H4.40624V58.7696H1.2832C4.60866 68.7811 14.0501 76 25.1769 76C39.0798 76 50.3513 64.7285 50.3513 50.8256H39.5012H39.4991Z" fill="#3A3A3A"/>
<path d="M19.543 41.8304H15.3066V46.0667H19.543V41.8304Z" fill="#1FA2EA"/>
<path d="M27.459 38.4471H23.2227V42.6834H27.459V38.4471Z" fill="#4B6CB7"/>
<path d="M17.9785 47.746H11.1934V54.5312H17.9785V47.746Z" fill="#16C19F"/>
<path d="M24.7637 54.5312H17.9785V61.3163H24.7637V54.5312Z" fill="#F7C729"/>
<path d="M26.3281 46.0667H19.543V52.8519H26.3281V46.0667Z" fill="#F27C7C"/>
<path d="M7.432 6.77628V12.6803H5.56V8.55228H3.704V6.77628H7.432ZM7.432 11.8483C7.76267 12.3709 8.22667 12.7549 8.824 13.0003C9.42133 13.2456 10.136 13.3843 10.968 13.4163C11.4373 13.4376 11.992 13.4536 12.632 13.4643C13.2827 13.4643 13.9653 13.4589 14.68 13.4483C15.3947 13.4376 16.0933 13.4163 16.776 13.3843C17.4693 13.3523 18.0827 13.3149 18.616 13.2723C18.552 13.4216 18.4773 13.6136 18.392 13.8483C18.3067 14.0829 18.2267 14.3229 18.152 14.5683C18.088 14.8136 18.04 15.0323 18.008 15.2243C17.528 15.2563 16.9787 15.2776 16.36 15.2883C15.7413 15.3096 15.1067 15.3203 14.456 15.3203C13.8053 15.3309 13.176 15.3309 12.568 15.3203C11.96 15.3096 11.416 15.2936 10.936 15.2723C9.95467 15.2296 9.11733 15.0749 8.424 14.8083C7.73067 14.5523 7.11733 14.1149 6.584 13.4963C6.232 13.7949 5.86933 14.1043 5.496 14.4243C5.13333 14.7443 4.73333 15.0749 4.296 15.4163L3.352 13.4163C3.72533 13.1923 4.11467 12.9469 4.52 12.6803C4.92533 12.4136 5.31467 12.1363 5.688 11.8483H7.432ZM3.72 2.07228L5.144 0.920276C5.47467 1.13361 5.81067 1.38428 6.152 1.67228C6.49333 1.94961 6.81333 2.23761 7.112 2.53628C7.41067 2.82428 7.65067 3.09094 7.832 3.33628L6.312 4.61628C6.152 4.36028 5.928 4.08294 5.64 3.78428C5.36267 3.48561 5.05333 3.18694 4.712 2.88828C4.37067 2.57894 4.04 2.30694 3.72 2.07228ZM8.36 1.83228L9.992 1.22428C10.1947 1.53361 10.3867 1.86428 10.568 2.21628C10.7493 2.56828 10.9147 2.92028 11.064 3.27228C11.2133 3.61361 11.3147 3.92294 11.368 4.20028L9.624 4.88828C9.58133 4.62161 9.496 4.31228 9.368 3.96028C9.24 3.59761 9.08533 3.23494 8.904 2.87228C8.73333 2.49894 8.552 2.15228 8.36 1.83228ZM7.96 5.28828H18.152V7.04828H7.96V5.28828ZM12.056 0.776276H13.944V12.9043H12.056V0.776276ZM11.656 6.10428L13.128 6.60028C12.8293 7.35761 12.4613 8.08828 12.024 8.79228C11.5867 9.49628 11.1013 10.1469 10.568 10.7443C10.0453 11.3416 9.496 11.8429 8.92 12.2483C8.824 12.0883 8.696 11.9176 8.536 11.7363C8.38667 11.5443 8.22667 11.3576 8.056 11.1763C7.896 10.9949 7.74133 10.8456 7.592 10.7283C8.14667 10.4083 8.68 10.0029 9.192 9.51228C9.71467 9.02161 10.184 8.48294 10.6 7.89628C11.0267 7.30961 11.3787 6.71228 11.656 6.10428ZM14.392 6.16828C14.6693 6.75494 15.0213 7.33628 15.448 7.91228C15.8747 8.47761 16.3493 8.99494 16.872 9.46428C17.3947 9.93361 17.9333 10.3283 18.488 10.6483C18.3387 10.7656 18.1787 10.9149 18.008 11.0963C17.848 11.2669 17.688 11.4483 17.528 11.6403C17.3787 11.8323 17.256 12.0136 17.16 12.1843C16.5947 11.7896 16.0507 11.2989 15.528 10.7123C15.0053 10.1256 14.5307 9.48028 14.104 8.77628C13.688 8.07228 13.3253 7.35228 13.016 6.61628L14.392 6.16828ZM16.152 1.12828L18.04 1.80028C17.848 2.16294 17.6453 2.53094 17.432 2.90428C17.2187 3.27761 17.0107 3.63494 16.808 3.97628C16.6053 4.30694 16.4133 4.60028 16.232 4.85628L14.728 4.24828C14.8987 3.97094 15.0747 3.65094 15.256 3.28828C15.4373 2.92561 15.6027 2.55761 15.752 2.18428C15.912 1.80028 16.0453 1.44828 16.152 1.12828ZM30.76 8.90428C30.76 8.55228 30.6693 8.23228 30.488 7.94428C30.3173 7.65628 30.056 7.42694 29.704 7.25628C29.3627 7.07494 28.936 6.98428 28.424 6.98428C27.848 6.98428 27.288 7.03228 26.744 7.12828C26.2107 7.22428 25.7307 7.33628 25.304 7.46428C24.888 7.58161 24.5413 7.68294 24.264 7.76828C24.0293 7.83228 23.768 7.92294 23.48 8.04028C23.2027 8.14694 22.9467 8.24294 22.712 8.32828L22.104 6.04028C22.3813 6.01894 22.68 5.98161 23 5.92828C23.32 5.87494 23.608 5.82161 23.864 5.76828C24.2587 5.67228 24.7067 5.57094 25.208 5.46428C25.72 5.34694 26.2747 5.24561 26.872 5.16028C27.4693 5.07494 28.0773 5.03228 28.696 5.03228C29.5493 5.03228 30.296 5.19228 30.936 5.51228C31.5867 5.82161 32.0933 6.26961 32.456 6.85628C32.8187 7.44294 33 8.15228 33 8.98428C33 9.83761 32.8133 10.6109 32.44 11.3043C32.0667 11.9976 31.5387 12.6056 30.856 13.1283C30.1733 13.6403 29.368 14.0669 28.44 14.4083C27.512 14.7496 26.4933 14.9949 25.384 15.1443L24.232 13.1603C25.224 13.0429 26.12 12.8723 26.92 12.6483C27.7307 12.4243 28.4187 12.1416 28.984 11.8003C29.56 11.4483 29.9973 11.0376 30.296 10.5683C30.6053 10.0883 30.76 9.53361 30.76 8.90428ZM24.472 1.22428C24.9307 1.32028 25.48 1.41094 26.12 1.49628C26.7707 1.58161 27.4373 1.65628 28.12 1.72028C28.8133 1.78428 29.4693 1.83761 30.088 1.88028C30.7173 1.91228 31.24 1.93361 31.656 1.94428L31.336 3.91228C30.8667 3.88028 30.3173 3.83761 29.688 3.78428C29.0587 3.73094 28.408 3.67228 27.736 3.60828C27.064 3.53361 26.4133 3.45894 25.784 3.38428C25.1653 3.29894 24.6213 3.21894 24.152 3.14428L24.472 1.22428ZM48.536 3.17628C48.536 3.58161 48.536 4.00828 48.536 4.45628C48.536 4.90428 48.536 5.34694 48.536 5.78428C48.536 6.21094 48.536 6.58961 48.536 6.92028C48.536 7.48561 48.5467 8.02428 48.568 8.53628C48.5893 9.03761 48.6107 9.51761 48.632 9.97628C48.664 10.4243 48.6907 10.8563 48.712 11.2723C48.7333 11.6883 48.744 12.0723 48.744 12.4243C48.744 13.1389 48.5093 13.7096 48.04 14.1363C47.5707 14.5736 46.8187 14.7923 45.784 14.7923C45.1653 14.7923 44.6 14.7016 44.088 14.5203C43.5867 14.3389 43.1813 14.0616 42.872 13.6883C42.5733 13.3149 42.424 12.8403 42.424 12.2643C42.424 11.7949 42.5467 11.3736 42.792 11.0003C43.0373 10.6163 43.4053 10.3123 43.896 10.0883C44.3867 9.85361 44.9947 9.73628 45.72 9.73628C46.52 9.73628 47.2453 9.82694 47.896 10.0083C48.5573 10.1896 49.144 10.4189 49.656 10.6963C50.1787 10.9629 50.632 11.2403 51.016 11.5283C51.4 11.8056 51.7093 12.0509 51.944 12.2643L50.888 14.0083C50.3867 13.4856 49.8427 13.0163 49.256 12.6003C48.6693 12.1843 48.072 11.8536 47.464 11.6083C46.856 11.3629 46.2533 11.2403 45.656 11.2403C45.1973 11.2403 44.8453 11.3203 44.6 11.4803C44.3547 11.6403 44.232 11.8536 44.232 12.1203C44.232 12.4189 44.3493 12.6429 44.584 12.7923C44.8187 12.9416 45.1333 13.0163 45.528 13.0163C45.848 13.0163 46.0987 12.9683 46.28 12.8723C46.472 12.7656 46.6107 12.6216 46.696 12.4403C46.7813 12.2483 46.824 12.0243 46.824 11.7683C46.824 11.5229 46.8187 11.2189 46.808 10.8563C46.7973 10.4936 46.776 10.0936 46.744 9.65628C46.7227 9.20828 46.7067 8.76028 46.696 8.31228C46.6853 7.85361 46.68 7.41628 46.68 7.00028C46.68 6.56294 46.68 6.09894 46.68 5.60828C46.68 5.10694 46.68 4.64294 46.68 4.21628C46.68 3.77894 46.68 3.43228 46.68 3.17628H48.536ZM43.048 6.02428C44.0507 6.08828 45.032 6.12028 45.992 6.12028C46.9627 6.12028 47.8907 6.08828 48.776 6.02428C49.6613 5.96028 50.4827 5.88028 51.24 5.78428V7.64028C50.5467 7.71494 49.752 7.77894 48.856 7.83228C47.9707 7.88561 47.032 7.91761 46.04 7.92828C45.0587 7.92828 44.0613 7.90694 43.048 7.86428V6.02428ZM43.288 2.28028C44.0133 2.33361 44.7227 2.36561 45.416 2.37628C46.12 2.38694 46.7973 2.38161 47.448 2.36028C48.0987 2.33894 48.712 2.30161 49.288 2.24828C49.8747 2.19494 50.4133 2.13094 50.904 2.05628V3.83228C50.424 3.88561 49.896 3.93361 49.32 3.97628C48.744 4.01894 48.1253 4.05094 47.464 4.07228C46.8133 4.09361 46.136 4.10428 45.432 4.10428C44.7387 4.10428 44.024 4.08828 43.288 4.05628V2.28028ZM41.096 1.76828C41.0533 1.87494 41.0053 2.02428 40.952 2.21628C40.8987 2.40828 40.8507 2.59494 40.808 2.77628C40.776 2.95761 40.7493 3.09628 40.728 3.19228C40.6747 3.41628 40.616 3.72028 40.552 4.10428C40.488 4.47761 40.424 4.90428 40.36 5.38428C40.296 5.86428 40.232 6.35494 40.168 6.85628C40.1147 7.34694 40.0667 7.81628 40.024 8.26428C39.992 8.70161 39.976 9.08028 39.976 9.40028C39.976 9.56028 39.9813 9.74161 39.992 9.94428C40.0027 10.1469 40.0187 10.3283 40.04 10.4883C40.1147 10.3069 40.1947 10.1203 40.28 9.92828C40.3653 9.72561 40.4507 9.53361 40.536 9.35228C40.6213 9.16028 40.7013 8.97361 40.776 8.79228L41.752 9.59228C41.6027 10.0296 41.448 10.4883 41.288 10.9683C41.1387 11.4483 41.0053 11.9016 40.888 12.3283C40.7707 12.7549 40.68 13.1176 40.616 13.4163C40.5947 13.5229 40.5733 13.6509 40.552 13.8003C40.5307 13.9389 40.52 14.0563 40.52 14.1523C40.5307 14.2376 40.536 14.3389 40.536 14.4563C40.536 14.5843 40.5413 14.7016 40.552 14.8083L38.712 14.9523C38.552 14.3869 38.408 13.6669 38.28 12.7923C38.152 11.9069 38.088 10.9203 38.088 9.83228C38.088 9.23494 38.1093 8.61094 38.152 7.96028C38.1947 7.29894 38.2533 6.66428 38.328 6.05628C38.4027 5.43761 38.472 4.87761 38.536 4.37628C38.6107 3.86428 38.6693 3.45361 38.712 3.14428C38.744 2.93094 38.776 2.68028 38.808 2.39228C38.84 2.10428 38.8613 1.83228 38.872 1.57628L41.096 1.76828ZM65.784 5.28828C65.528 5.43761 65.2667 5.58161 65 5.72028C64.744 5.84828 64.472 5.98694 64.184 6.13628C63.8533 6.29628 63.4693 6.48828 63.032 6.71228C62.6053 6.92561 62.152 7.16561 61.672 7.43228C61.192 7.68828 60.7067 7.97094 60.216 8.28028C59.5547 8.71761 59.016 9.17094 58.6 9.64028C58.1947 10.1096 57.992 10.6269 57.992 11.1923C57.992 11.7576 58.2693 12.1949 58.824 12.5043C59.3787 12.8029 60.216 12.9523 61.336 12.9523C61.88 12.9523 62.4667 12.9309 63.096 12.8883C63.7253 12.8349 64.3387 12.7656 64.936 12.6803C65.544 12.5843 66.0827 12.4829 66.552 12.3763L66.52 14.6643C66.072 14.7496 65.5813 14.8243 65.048 14.8883C64.5253 14.9523 63.96 15.0003 63.352 15.0323C62.744 15.0643 62.088 15.0803 61.384 15.0803C60.5947 15.0803 59.8587 15.0163 59.176 14.8883C58.4933 14.7603 57.896 14.5576 57.384 14.2803C56.8827 14.0029 56.488 13.6296 56.2 13.1603C55.9227 12.6909 55.784 12.1096 55.784 11.4163C55.784 10.7443 55.9333 10.1309 56.232 9.57628C56.5307 9.02161 56.936 8.50961 57.448 8.04028C57.96 7.57094 58.5307 7.12828 59.16 6.71228C59.672 6.38161 60.1787 6.07761 60.68 5.80028C61.192 5.51228 61.672 5.25094 62.12 5.01628C62.5787 4.77094 62.968 4.55228 63.288 4.36028C63.5867 4.18961 63.8533 4.02961 64.088 3.88028C64.3333 3.73094 64.5573 3.57094 64.76 3.40028L65.784 5.28828ZM58.232 1.62428C58.488 2.32828 58.76 3.01094 59.048 3.67228C59.3467 4.32294 59.64 4.93094 59.928 5.49628C60.2267 6.06161 60.4987 6.56294 60.744 7.00028L58.936 8.07228C58.648 7.58161 58.3493 7.03228 58.04 6.42428C57.7307 5.81628 57.4213 5.17628 57.112 4.50428C56.8133 3.82161 56.5147 3.13361 56.216 2.44028L58.232 1.62428ZM65.96 1.38428C66.0987 1.57628 66.248 1.80561 66.408 2.07228C66.568 2.33894 66.7173 2.60561 66.856 2.87228C67.0053 3.13894 67.1333 3.37361 67.24 3.57628L65.944 4.12028C65.784 3.78961 65.5867 3.41628 65.352 3.00028C65.128 2.57361 64.9093 2.20561 64.696 1.89628L65.96 1.38428ZM67.864 0.648275C68.0027 0.850942 68.152 1.09094 68.312 1.36828C68.472 1.63494 68.6267 1.90161 68.776 2.16828C68.936 2.42428 69.064 2.64828 69.16 2.84028L67.88 3.38428C67.72 3.04294 67.5173 2.66428 67.272 2.24828C67.0373 1.83228 66.808 1.47494 66.584 1.17628L67.864 0.648275ZM79.656 3.17628C79.5493 3.98694 79.4107 4.85094 79.24 5.76828C79.0693 6.68561 78.84 7.61361 78.552 8.55228C78.2427 9.62961 77.88 10.5576 77.464 11.3363C77.048 12.1149 76.5893 12.7176 76.088 13.1443C75.5973 13.5603 75.0587 13.7683 74.472 13.7683C73.8853 13.7683 73.3413 13.5709 72.84 13.1763C72.3493 12.7709 71.9547 12.2163 71.656 11.5123C71.368 10.8083 71.224 10.0083 71.224 9.11228C71.224 8.18428 71.4107 7.30961 71.784 6.48828C72.1573 5.66694 72.6747 4.94161 73.336 4.31228C74.008 3.67228 74.7867 3.17094 75.672 2.80828C76.568 2.44561 77.5333 2.26428 78.568 2.26428C79.56 2.26428 80.4507 2.42428 81.24 2.74428C82.04 3.06428 82.7227 3.50694 83.288 4.07228C83.8533 4.63761 84.2853 5.29894 84.584 6.05628C84.8827 6.81361 85.032 7.62961 85.032 8.50428C85.032 9.62428 84.8027 10.6269 84.344 11.5123C83.8853 12.3976 83.2027 13.1283 82.296 13.7043C81.4 14.2803 80.28 14.6749 78.936 14.8883L77.736 12.9843C78.0453 12.9523 78.3173 12.9149 78.552 12.8723C78.7867 12.8296 79.0107 12.7816 79.224 12.7283C79.736 12.6003 80.2107 12.4189 80.648 12.1843C81.096 11.9389 81.4853 11.6403 81.816 11.2883C82.1467 10.9256 82.4027 10.5043 82.584 10.0243C82.776 9.54428 82.872 9.01628 82.872 8.44028C82.872 7.81094 82.776 7.23494 82.584 6.71228C82.392 6.18961 82.1093 5.73628 81.736 5.35228C81.3627 4.95761 80.9093 4.65894 80.376 4.45628C79.8427 4.24294 79.2293 4.13628 78.536 4.13628C77.6827 4.13628 76.9307 4.29094 76.28 4.60028C75.6293 4.89894 75.08 5.28828 74.632 5.76828C74.184 6.24828 73.8427 6.76561 73.608 7.32028C73.384 7.87494 73.272 8.40294 73.272 8.90428C73.272 9.43761 73.336 9.88561 73.464 10.2483C73.592 10.6003 73.7467 10.8669 73.928 11.0483C74.12 11.2189 74.3227 11.3043 74.536 11.3043C74.76 11.3043 74.9787 11.1923 75.192 10.9683C75.416 10.7336 75.6347 10.3816 75.848 9.91228C76.0613 9.44294 76.2747 8.85094 76.488 8.13628C76.7333 7.36828 76.9413 6.54694 77.112 5.67228C77.2827 4.79761 77.4053 3.94428 77.48 3.11228L79.656 3.17628ZM90.008 2.05628C90.264 2.09894 90.5467 2.13094 90.856 2.15228C91.1653 2.17361 91.4533 2.18428 91.72 2.18428C91.9227 2.18428 92.2 2.18428 92.552 2.18428C92.904 2.18428 93.2933 2.18428 93.72 2.18428C94.1467 2.18428 94.568 2.18428 94.984 2.18428C95.4107 2.18428 95.8 2.18428 96.152 2.18428C96.504 2.18428 96.7707 2.18428 96.952 2.18428C97.2293 2.18428 97.5173 2.17361 97.816 2.15228C98.1147 2.13094 98.4027 2.09894 98.68 2.05628V4.12028C98.4027 4.09894 98.1147 4.08828 97.816 4.08828C97.5173 4.07761 97.2293 4.07228 96.952 4.07228C96.7707 4.07228 96.504 4.07228 96.152 4.07228C95.8 4.07228 95.4107 4.07228 94.984 4.07228C94.568 4.07228 94.1467 4.07228 93.72 4.07228C93.304 4.07228 92.9147 4.07228 92.552 4.07228C92.2 4.07228 91.9227 4.07228 91.72 4.07228C91.4427 4.07228 91.1493 4.07761 90.84 4.08828C90.5307 4.08828 90.2533 4.09894 90.008 4.12028V2.05628ZM88.152 6.15228C88.3867 6.18428 88.6373 6.21094 88.904 6.23228C89.1813 6.24294 89.4427 6.24828 89.688 6.24828C89.8267 6.24828 90.104 6.24828 90.52 6.24828C90.936 6.24828 91.4373 6.24828 92.024 6.24828C92.6213 6.24828 93.256 6.24828 93.928 6.24828C94.6 6.24828 95.272 6.24828 95.944 6.24828C96.6267 6.24828 97.2613 6.24828 97.848 6.24828C98.4347 6.24828 98.9307 6.24828 99.336 6.24828C99.752 6.24828 100.029 6.24828 100.168 6.24828C100.339 6.24828 100.568 6.24294 100.856 6.23228C101.155 6.21094 101.411 6.18428 101.624 6.15228V8.23228C101.432 8.21094 101.197 8.20028 100.92 8.20028C100.643 8.18961 100.392 8.18428 100.168 8.18428C100.029 8.18428 99.752 8.18428 99.336 8.18428C98.9307 8.18428 98.4347 8.18428 97.848 8.18428C97.2613 8.18428 96.6267 8.18428 95.944 8.18428C95.272 8.18428 94.6 8.18428 93.928 8.18428C93.256 8.18428 92.6213 8.18428 92.024 8.18428C91.4373 8.18428 90.936 8.18428 90.52 8.18428C90.104 8.18428 89.8267 8.18428 89.688 8.18428C89.4533 8.18428 89.192 8.18961 88.904 8.20028C88.6267 8.21094 88.376 8.22694 88.152 8.24828V6.15228ZM96.344 7.27228C96.344 8.30694 96.2533 9.24028 96.072 10.0723C95.8907 10.8936 95.6293 11.6349 95.288 12.2963C95.1067 12.6589 94.8507 13.0323 94.52 13.4163C94.2 13.8003 93.832 14.1629 93.416 14.5043C93 14.8456 92.552 15.1336 92.072 15.3683L90.2 14.0083C90.7653 13.7949 91.3093 13.4803 91.832 13.0643C92.3547 12.6376 92.776 12.1896 93.096 11.7203C93.5013 11.1123 93.7733 10.4349 93.912 9.68828C94.0507 8.94161 94.12 8.13628 94.12 7.27228H96.344ZM99.64 0.952275C99.7787 1.14428 99.9227 1.37361 100.072 1.64028C100.232 1.90694 100.381 2.17361 100.52 2.44028C100.669 2.70694 100.797 2.94161 100.904 3.14428L99.624 3.70428C99.4533 3.37361 99.2507 3.00028 99.016 2.58428C98.792 2.15761 98.5733 1.78961 98.36 1.48028L99.64 0.952275ZM101.528 0.232276C101.667 0.434943 101.816 0.674942 101.976 0.952275C102.136 1.21894 102.291 1.48561 102.44 1.75228C102.6 2.00828 102.728 2.22694 102.824 2.40828L101.544 2.96828C101.384 2.62694 101.181 2.24828 100.936 1.83228C100.701 1.41628 100.477 1.05894 100.264 0.760276L101.528 0.232276ZM116.872 1.68828C116.979 1.89094 117.08 2.12561 117.176 2.39228C117.283 2.65894 117.384 2.92028 117.48 3.17628C117.576 3.43228 117.656 3.66694 117.72 3.88028L116.616 4.23228C116.541 4.00828 116.456 3.76828 116.36 3.51228C116.275 3.25628 116.184 3.00028 116.088 2.74428C116.003 2.48828 115.907 2.25361 115.8 2.04028L116.872 1.68828ZM118.52 1.17628C118.627 1.38961 118.733 1.62961 118.84 1.89628C118.947 2.15228 119.048 2.40828 119.144 2.66428C119.251 2.92028 119.336 3.14961 119.4 3.35228L118.296 3.70428C118.189 3.36294 118.061 2.99494 117.912 2.60028C117.763 2.20561 117.603 1.84828 117.432 1.52828L118.52 1.17628ZM115.496 7.30428C115.496 8.29628 115.421 9.19761 115.272 10.0083C115.133 10.8083 114.888 11.5389 114.536 12.2003C114.184 12.8509 113.693 13.4429 113.064 13.9763C112.435 14.4989 111.64 14.9736 110.68 15.4003L108.968 13.7843C109.736 13.5069 110.403 13.2029 110.968 12.8723C111.533 12.5416 111.992 12.1363 112.344 11.6563C112.707 11.1763 112.973 10.5949 113.144 9.91228C113.325 9.21894 113.416 8.37628 113.416 7.38428V3.12828C113.416 2.80828 113.405 2.52028 113.384 2.26428C113.363 2.00828 113.341 1.80028 113.32 1.64028H115.608C115.587 1.80028 115.56 2.00828 115.528 2.26428C115.507 2.52028 115.496 2.80828 115.496 3.12828V7.30428ZM109.72 1.78428C109.699 1.93361 109.677 2.13628 109.656 2.39228C109.635 2.63761 109.624 2.92028 109.624 3.24028V8.95228C109.624 9.18694 109.629 9.41628 109.64 9.64028C109.651 9.85361 109.661 10.0456 109.672 10.2163C109.683 10.3869 109.688 10.5256 109.688 10.6323H107.448C107.469 10.5256 107.485 10.3923 107.496 10.2323C107.507 10.0616 107.517 9.86428 107.528 9.64028C107.539 9.41628 107.544 9.18694 107.544 8.95228V3.22428C107.544 2.98961 107.533 2.75494 107.512 2.52028C107.501 2.27494 107.48 2.02961 107.448 1.78428H109.72ZM104.456 4.66428C104.552 4.68561 104.685 4.70694 104.856 4.72828C105.027 4.74961 105.224 4.77094 105.448 4.79228C105.672 4.80294 105.917 4.80828 106.184 4.80828H116.68C117.107 4.80828 117.453 4.79761 117.72 4.77628C117.987 4.75494 118.227 4.72828 118.44 4.69628V6.82428C118.269 6.81361 118.04 6.80294 117.752 6.79228C117.464 6.78161 117.112 6.77628 116.696 6.77628H106.184C105.917 6.77628 105.672 6.78161 105.448 6.79228C105.235 6.79228 105.043 6.79761 104.872 6.80828C104.712 6.81894 104.573 6.82961 104.456 6.84028V4.66428ZM121.592 7.91228C123.032 7.53894 124.333 7.10694 125.496 6.61628C126.669 6.11494 127.699 5.59228 128.584 5.04828C129.139 4.70694 129.693 4.31761 130.248 3.88028C130.813 3.43228 131.341 2.97361 131.832 2.50428C132.333 2.03494 132.755 1.58694 133.096 1.16028L134.824 2.80828C134.333 3.28828 133.795 3.77361 133.208 4.26428C132.632 4.75494 132.029 5.22428 131.4 5.67228C130.771 6.12028 130.147 6.53094 129.528 6.90428C128.92 7.25628 128.237 7.61894 127.48 7.99228C126.733 8.36561 125.944 8.71761 125.112 9.04828C124.28 9.37894 123.443 9.67228 122.6 9.92828L121.592 7.91228ZM128.248 6.07228L130.52 5.54428V12.7443C130.52 12.9789 130.525 13.2349 130.536 13.5123C130.547 13.7896 130.563 14.0456 130.584 14.2803C130.605 14.5256 130.632 14.7123 130.664 14.8403H128.136C128.157 14.7123 128.173 14.5256 128.184 14.2803C128.205 14.0456 128.221 13.7896 128.232 13.5123C128.243 13.2349 128.248 12.9789 128.248 12.7443V6.07228ZM140.456 1.97628C140.733 2.16828 141.059 2.40294 141.432 2.68028C141.805 2.95761 142.189 3.26161 142.584 3.59228C142.989 3.91228 143.368 4.22694 143.72 4.53628C144.072 4.84561 144.36 5.12294 144.584 5.36828L142.952 7.03228C142.749 6.80828 142.483 6.54161 142.152 6.23228C141.821 5.92294 141.464 5.60294 141.08 5.27228C140.696 4.94161 140.317 4.62694 139.944 4.32828C139.571 4.02961 139.24 3.77894 138.952 3.57628L140.456 1.97628ZM138.456 12.6323C139.288 12.5149 140.072 12.3496 140.808 12.1363C141.544 11.9229 142.227 11.6776 142.856 11.4003C143.485 11.1229 144.061 10.8349 144.584 10.5363C145.491 9.99228 146.323 9.37361 147.08 8.68028C147.837 7.98694 148.499 7.26694 149.064 6.52028C149.629 5.76294 150.077 5.02694 150.408 4.31228L151.656 6.56828C151.251 7.28294 150.749 7.99761 150.152 8.71228C149.565 9.42694 148.899 10.1096 148.152 10.7603C147.405 11.4003 146.6 11.9763 145.736 12.4883C145.192 12.8189 144.605 13.1336 143.976 13.4323C143.347 13.7203 142.68 13.9763 141.976 14.2003C141.283 14.4349 140.557 14.6163 139.8 14.7443L138.456 12.6323ZM166.728 4.80828C166.493 4.95761 166.243 5.10161 165.976 5.24028C165.72 5.37894 165.443 5.52294 165.144 5.67228C164.899 5.80028 164.595 5.94961 164.232 6.12028C163.88 6.29094 163.496 6.48294 163.08 6.69628C162.675 6.89894 162.264 7.11761 161.848 7.35228C161.432 7.57628 161.043 7.80561 160.68 8.04028C160.019 8.47761 159.48 8.93094 159.064 9.40028C158.659 9.86961 158.456 10.3869 158.456 10.9523C158.456 11.5176 158.733 11.9549 159.288 12.2643C159.843 12.5629 160.675 12.7123 161.784 12.7123C162.339 12.7123 162.925 12.6909 163.544 12.6483C164.173 12.5949 164.792 12.5256 165.4 12.4403C166.008 12.3443 166.547 12.2376 167.016 12.1203L166.984 14.4243C166.536 14.4989 166.045 14.5683 165.512 14.6323C164.989 14.6963 164.419 14.7443 163.8 14.7763C163.192 14.8083 162.541 14.8243 161.848 14.8243C161.048 14.8243 160.307 14.7603 159.624 14.6323C158.952 14.5149 158.36 14.3176 157.848 14.0403C157.347 13.7629 156.952 13.3896 156.664 12.9203C156.387 12.4509 156.248 11.8749 156.248 11.1923C156.248 10.5096 156.397 9.89094 156.696 9.33628C156.995 8.78161 157.4 8.26961 157.912 7.80028C158.435 7.33094 159.005 6.88828 159.624 6.47228C160.008 6.21628 160.413 5.97094 160.84 5.73628C161.267 5.49094 161.683 5.25628 162.088 5.03228C162.504 4.80828 162.888 4.60561 163.24 4.42428C163.603 4.23228 163.901 4.06694 164.136 3.92828C164.445 3.74694 164.717 3.58161 164.952 3.43228C165.187 3.28294 165.411 3.12294 165.624 2.95228L166.728 4.80828ZM158.68 1.38428C158.947 2.08828 159.224 2.76561 159.512 3.41628C159.811 4.06694 160.104 4.67494 160.392 5.24028C160.691 5.80561 160.963 6.31228 161.208 6.76028L159.4 7.83228C159.112 7.34161 158.813 6.79228 158.504 6.18428C158.195 5.57628 157.885 4.93628 157.576 4.26428C157.267 3.58161 156.968 2.89361 156.68 2.20028L158.68 1.38428ZM173.639 15.2403C173.319 14.8349 172.962 14.4243 172.567 14.0083C172.173 13.5923 171.773 13.1869 171.367 12.7923C170.962 12.3869 170.573 12.0243 170.199 11.7043L171.863 10.2643C172.247 10.5736 172.658 10.9416 173.095 11.3683C173.533 11.7843 173.949 12.2056 174.343 12.6323C174.749 13.0589 175.085 13.4376 175.351 13.7683L173.639 15.2403ZM255.255 1.30428C255.202 1.59228 255.117 1.96561 254.999 2.42428C254.882 2.88294 254.711 3.40028 254.487 3.97628C254.317 4.37094 254.119 4.78161 253.895 5.20828C253.682 5.62428 253.463 5.99761 253.239 6.32828C253.378 6.26428 253.554 6.21094 253.767 6.16828C253.981 6.11494 254.199 6.07761 254.423 6.05628C254.658 6.02428 254.866 6.00828 255.047 6.00828C255.719 6.00828 256.274 6.20028 256.711 6.58428C257.159 6.96828 257.383 7.53894 257.383 8.29628C257.383 8.50961 257.383 8.77094 257.383 9.08028C257.394 9.38961 257.405 9.71494 257.415 10.0563C257.426 10.3869 257.437 10.7123 257.447 11.0323C257.458 11.3523 257.463 11.6403 257.463 11.8963H255.543C255.565 11.7149 255.575 11.5016 255.575 11.2563C255.586 11.0003 255.591 10.7336 255.591 10.4563C255.602 10.1789 255.607 9.91228 255.607 9.65628C255.618 9.38961 255.623 9.14961 255.623 8.93628C255.623 8.42428 255.485 8.07228 255.207 7.88028C254.941 7.67761 254.642 7.57628 254.311 7.57628C253.863 7.57628 253.41 7.68828 252.951 7.91228C252.503 8.12561 252.125 8.38161 251.815 8.68028C251.581 8.91494 251.341 9.17628 251.095 9.46428C250.861 9.75228 250.605 10.0776 250.327 10.4403L248.615 9.16028C249.309 8.52028 249.906 7.90161 250.407 7.30428C250.919 6.70694 251.351 6.11494 251.703 5.52828C252.055 4.94161 252.343 4.35494 252.567 3.76828C252.727 3.34161 252.855 2.89894 252.951 2.44028C253.058 1.97094 253.122 1.53361 253.143 1.12828L255.255 1.30428ZM249.239 2.77628C249.645 2.84028 250.114 2.88828 250.647 2.92028C251.181 2.95228 251.65 2.96828 252.055 2.96828C252.759 2.96828 253.527 2.95228 254.359 2.92028C255.202 2.88828 256.055 2.83494 256.919 2.76028C257.783 2.67494 258.605 2.56828 259.383 2.44028L259.367 4.29628C258.802 4.37094 258.189 4.44028 257.527 4.50428C256.877 4.55761 256.21 4.60561 255.527 4.64828C254.855 4.68028 254.21 4.70694 253.591 4.72828C252.973 4.73894 252.423 4.74428 251.943 4.74428C251.73 4.74428 251.463 4.74428 251.143 4.74428C250.834 4.73361 250.514 4.72294 250.183 4.71228C249.853 4.69094 249.538 4.66961 249.239 4.64828V2.77628ZM261.911 7.32028C261.741 7.37361 261.538 7.44294 261.303 7.52828C261.079 7.60294 260.85 7.68294 260.615 7.76828C260.391 7.84294 260.189 7.91761 260.007 7.99228C259.495 8.19494 258.887 8.44028 258.183 8.72828C257.49 9.01628 256.765 9.35228 256.007 9.73628C255.527 9.99228 255.122 10.2429 254.791 10.4883C254.461 10.7336 254.21 10.9843 254.039 11.2403C253.869 11.4856 253.783 11.7576 253.783 12.0563C253.783 12.2803 253.831 12.4669 253.927 12.6163C254.023 12.7549 254.167 12.8669 254.359 12.9523C254.551 13.0376 254.791 13.0963 255.079 13.1283C255.367 13.1603 255.709 13.1763 256.103 13.1763C256.786 13.1763 257.538 13.1389 258.359 13.0643C259.181 12.9789 259.943 12.8669 260.647 12.7283L260.583 14.7923C260.242 14.8349 259.81 14.8776 259.287 14.9203C258.765 14.9736 258.221 15.0109 257.655 15.0323C257.101 15.0536 256.567 15.0643 256.055 15.0643C255.223 15.0643 254.477 14.9843 253.815 14.8243C253.154 14.6643 252.631 14.3923 252.247 14.0083C251.874 13.6136 251.687 13.0749 251.687 12.3923C251.687 11.8376 251.81 11.3363 252.055 10.8883C252.311 10.4403 252.647 10.0349 253.063 9.67228C253.479 9.30961 253.933 8.98428 254.423 8.69628C254.925 8.39761 255.415 8.12561 255.895 7.88028C256.386 7.62428 256.829 7.40561 257.223 7.22428C257.618 7.04294 257.986 6.88294 258.327 6.74428C258.679 6.59494 259.015 6.44561 259.335 6.29628C259.645 6.15761 259.943 6.02428 260.231 5.89628C260.519 5.75761 260.813 5.61361 261.111 5.46428L261.911 7.32028ZM267.367 10.1683C267.858 10.1683 268.295 10.2856 268.679 10.5203C269.063 10.7549 269.373 11.0696 269.607 11.4643C269.842 11.8483 269.959 12.2803 269.959 12.7603C269.959 13.2296 269.842 13.6616 269.607 14.0563C269.373 14.4509 269.063 14.7656 268.679 15.0003C268.295 15.2349 267.858 15.3523 267.367 15.3523C266.898 15.3523 266.466 15.2349 266.071 15.0003C265.677 14.7656 265.362 14.4509 265.127 14.0563C264.903 13.6616 264.791 13.2296 264.791 12.7603C264.791 12.2803 264.903 11.8483 265.127 11.4643C265.362 11.0696 265.677 10.7549 266.071 10.5203C266.466 10.2856 266.898 10.1683 267.367 10.1683ZM267.383 14.2003C267.778 14.2003 268.114 14.0616 268.391 13.7843C268.669 13.4963 268.807 13.1549 268.807 12.7603C268.807 12.4936 268.743 12.2536 268.615 12.0403C268.487 11.8163 268.311 11.6403 268.087 11.5123C267.874 11.3843 267.639 11.3203 267.383 11.3203C267.117 11.3203 266.877 11.3843 266.663 11.5123C266.45 11.6403 266.274 11.8163 266.135 12.0403C266.007 12.2536 265.943 12.4936 265.943 12.7603C265.943 13.0269 266.007 13.2723 266.135 13.4963C266.274 13.7096 266.45 13.8803 266.663 14.0083C266.877 14.1363 267.117 14.2003 267.383 14.2003Z" fill="#3A3A3A"/>
<path d="M189.575 12.6323C190.279 12.5256 190.925 12.3709 191.511 12.1683C192.098 11.9656 192.605 11.7043 193.031 11.3843C193.469 11.0643 193.805 10.6749 194.039 10.2163C194.274 9.74694 194.391 9.19761 194.391 8.56828C194.391 8.25894 194.333 7.96028 194.215 7.67228C194.098 7.38428 193.922 7.12828 193.687 6.90428C193.463 6.66961 193.191 6.48828 192.871 6.36028C192.551 6.23228 192.189 6.16828 191.783 6.16828C190.77 6.16828 189.826 6.43494 188.951 6.96828C188.077 7.49094 187.25 8.16828 186.471 9.00028V6.72828C187.431 5.83228 188.397 5.20294 189.367 4.84028C190.349 4.47761 191.266 4.29628 192.119 4.29628C192.941 4.29628 193.682 4.47761 194.343 4.84028C195.015 5.20294 195.549 5.70961 195.943 6.36028C196.338 7.01094 196.535 7.76294 196.535 8.61628C196.535 9.42694 196.407 10.1576 196.151 10.8083C195.895 11.4589 195.517 12.0296 195.015 12.5203C194.514 13.0109 193.89 13.4269 193.143 13.7683C192.397 14.0989 191.527 14.3656 190.535 14.5683L189.575 12.6323ZM185.943 5.68828C185.773 5.69894 185.554 5.72561 185.287 5.76828C185.021 5.80028 184.733 5.83761 184.423 5.88028C184.125 5.91228 183.821 5.94961 183.511 5.99228C183.202 6.03494 182.914 6.07228 182.647 6.10428L182.439 4.05628C182.674 4.06694 182.893 4.07228 183.095 4.07228C183.309 4.06161 183.554 4.05094 183.831 4.04028C184.087 4.01894 184.391 3.99228 184.743 3.96028C185.106 3.91761 185.469 3.86961 185.831 3.81628C186.205 3.76294 186.551 3.70428 186.871 3.64028C187.191 3.57628 187.442 3.51228 187.623 3.44828L188.263 4.26428C188.167 4.39228 188.055 4.55228 187.927 4.74428C187.81 4.93628 187.687 5.13361 187.559 5.33628C187.431 5.52828 187.319 5.69894 187.223 5.84828L186.279 8.85628C186.109 9.10161 185.895 9.41094 185.639 9.78428C185.394 10.1576 185.133 10.5523 184.855 10.9683C184.578 11.3843 184.306 11.7843 184.039 12.1683C183.773 12.5523 183.533 12.8883 183.319 13.1763L182.055 11.4323C182.258 11.1763 182.493 10.8829 182.759 10.5523C183.026 10.2109 183.298 9.85361 183.575 9.48028C183.863 9.09628 184.146 8.71761 184.423 8.34428C184.701 7.96028 184.957 7.60294 185.191 7.27228C185.437 6.93094 185.639 6.63761 185.799 6.39228L185.831 5.97628L185.943 5.68828ZM185.751 2.60028C185.751 2.36561 185.751 2.13094 185.751 1.89628C185.751 1.65094 185.73 1.40561 185.687 1.16028L188.023 1.24028C187.97 1.48561 187.906 1.84294 187.831 2.31228C187.757 2.77094 187.682 3.29894 187.607 3.89628C187.543 4.49361 187.479 5.12294 187.415 5.78428C187.362 6.43494 187.314 7.08561 187.271 7.73628C187.239 8.38694 187.223 8.99494 187.223 9.56028C187.223 9.99761 187.223 10.4403 187.223 10.8883C187.234 11.3363 187.245 11.7949 187.255 12.2643C187.266 12.7336 187.287 13.2189 187.319 13.7203C187.33 13.8589 187.346 14.0509 187.367 14.2963C187.389 14.5523 187.41 14.7709 187.431 14.9523H185.223C185.245 14.7709 185.255 14.5576 185.255 14.3123C185.266 14.0776 185.271 13.8963 185.271 13.7683C185.282 13.2456 185.293 12.7603 185.303 12.3123C185.314 11.8643 185.319 11.3896 185.319 10.8883C185.33 10.3869 185.346 9.80561 185.367 9.14428C185.378 8.89894 185.394 8.58961 185.415 8.21628C185.437 7.83228 185.458 7.41628 185.479 6.96828C185.511 6.50961 185.543 6.04561 185.575 5.57628C185.607 5.10694 185.634 4.66961 185.655 4.26428C185.687 3.84828 185.709 3.49628 185.719 3.20828C185.741 2.90961 185.751 2.70694 185.751 2.60028ZM209.943 2.60028C209.687 2.78161 209.437 2.97361 209.191 3.17628C208.946 3.36828 208.733 3.54428 208.551 3.70428C208.285 3.90694 207.965 4.15761 207.591 4.45628C207.229 4.74428 206.845 5.04828 206.439 5.36828C206.045 5.67761 205.661 5.98161 205.287 6.28028C204.914 6.57894 204.594 6.84561 204.327 7.08028C204.05 7.32561 203.863 7.52828 203.767 7.68828C203.671 7.83761 203.671 7.98694 203.767 8.13628C203.874 8.28561 204.071 8.48828 204.359 8.74428C204.594 8.94694 204.893 9.19761 205.255 9.49628C205.629 9.79494 206.029 10.1256 206.455 10.4883C206.893 10.8403 207.335 11.2083 207.783 11.5923C208.242 11.9656 208.679 12.3389 209.095 12.7123C209.522 13.0749 209.901 13.4163 210.231 13.7363L208.359 15.4483C207.911 14.9469 207.447 14.4509 206.967 13.9603C206.722 13.7149 206.402 13.4163 206.007 13.0643C205.623 12.7016 205.202 12.3229 204.743 11.9283C204.295 11.5336 203.847 11.1443 203.399 10.7603C202.951 10.3656 202.546 10.0136 202.183 9.70428C201.65 9.25628 201.303 8.84561 201.143 8.47228C200.994 8.09894 201.015 7.73094 201.207 7.36828C201.41 6.99494 201.778 6.58961 202.311 6.15228C202.631 5.90694 202.994 5.61894 203.399 5.28828C203.805 4.94694 204.221 4.60028 204.647 4.24828C205.074 3.88561 205.479 3.53894 205.863 3.20828C206.247 2.86694 206.573 2.56828 206.839 2.31228C207.074 2.07761 207.309 1.83761 207.543 1.59228C207.778 1.34694 207.954 1.13361 208.071 0.952275L209.943 2.60028ZM223.175 12.6323C223.879 12.5256 224.525 12.3709 225.111 12.1683C225.698 11.9656 226.205 11.7043 226.631 11.3843C227.069 11.0643 227.405 10.6749 227.639 10.2163C227.874 9.74694 227.991 9.19761 227.991 8.56828C227.991 8.25894 227.933 7.96028 227.815 7.67228C227.698 7.38428 227.522 7.12828 227.287 6.90428C227.063 6.66961 226.791 6.48828 226.471 6.36028C226.151 6.23228 225.789 6.16828 225.383 6.16828C224.37 6.16828 223.426 6.43494 222.551 6.96828C221.677 7.49094 220.85 8.16828 220.071 9.00028V6.72828C221.031 5.83228 221.997 5.20294 222.967 4.84028C223.949 4.47761 224.866 4.29628 225.719 4.29628C226.541 4.29628 227.282 4.47761 227.943 4.84028C228.615 5.20294 229.149 5.70961 229.543 6.36028C229.938 7.01094 230.135 7.76294 230.135 8.61628C230.135 9.42694 230.007 10.1576 229.751 10.8083C229.495 11.4589 229.117 12.0296 228.615 12.5203C228.114 13.0109 227.49 13.4269 226.743 13.7683C225.997 14.0989 225.127 14.3656 224.135 14.5683L223.175 12.6323ZM219.543 5.68828C219.373 5.69894 219.154 5.72561 218.887 5.76828C218.621 5.80028 218.333 5.83761 218.023 5.88028C217.725 5.91228 217.421 5.94961 217.111 5.99228C216.802 6.03494 216.514 6.07228 216.247 6.10428L216.039 4.05628C216.274 4.06694 216.493 4.07228 216.695 4.07228C216.909 4.06161 217.154 4.05094 217.431 4.04028C217.687 4.01894 217.991 3.99228 218.343 3.96028C218.706 3.91761 219.069 3.86961 219.431 3.81628C219.805 3.76294 220.151 3.70428 220.471 3.64028C220.791 3.57628 221.042 3.51228 221.223 3.44828L221.863 4.26428C221.767 4.39228 221.655 4.55228 221.527 4.74428C221.41 4.93628 221.287 5.13361 221.159 5.33628C221.031 5.52828 220.919 5.69894 220.823 5.84828L219.879 8.85628C219.709 9.10161 219.495 9.41094 219.239 9.78428C218.994 10.1576 218.733 10.5523 218.455 10.9683C218.178 11.3843 217.906 11.7843 217.639 12.1683C217.373 12.5523 217.133 12.8883 216.919 13.1763L215.655 11.4323C215.858 11.1763 216.093 10.8829 216.359 10.5523C216.626 10.2109 216.898 9.85361 217.175 9.48028C217.463 9.09628 217.746 8.71761 218.023 8.34428C218.301 7.96028 218.557 7.60294 218.791 7.27228C219.037 6.93094 219.239 6.63761 219.399 6.39228L219.431 5.97628L219.543 5.68828ZM219.351 2.60028C219.351 2.36561 219.351 2.13094 219.351 1.89628C219.351 1.65094 219.33 1.40561 219.287 1.16028L221.623 1.24028C221.57 1.48561 221.506 1.84294 221.431 2.31228C221.357 2.77094 221.282 3.29894 221.207 3.89628C221.143 4.49361 221.079 5.12294 221.015 5.78428C220.962 6.43494 220.914 7.08561 220.871 7.73628C220.839 8.38694 220.823 8.99494 220.823 9.56028C220.823 9.99761 220.823 10.4403 220.823 10.8883C220.834 11.3363 220.845 11.7949 220.855 12.2643C220.866 12.7336 220.887 13.2189 220.919 13.7203C220.93 13.8589 220.946 14.0509 220.967 14.2963C220.989 14.5523 221.01 14.7709 221.031 14.9523H218.823C218.845 14.7709 218.855 14.5576 218.855 14.3123C218.866 14.0776 218.871 13.8963 218.871 13.7683C218.882 13.2456 218.893 12.7603 218.903 12.3123C218.914 11.8643 218.919 11.3896 218.919 10.8883C218.93 10.3869 218.946 9.80561 218.967 9.14428C218.978 8.89894 218.994 8.58961 219.015 8.21628C219.037 7.83228 219.058 7.41628 219.079 6.96828C219.111 6.50961 219.143 6.04561 219.175 5.57628C219.207 5.10694 219.234 4.66961 219.255 4.26428C219.287 3.84828 219.309 3.49628 219.319 3.20828C219.341 2.90961 219.351 2.70694 219.351 2.60028ZM243.543 2.60028C243.287 2.78161 243.037 2.97361 242.791 3.17628C242.546 3.36828 242.333 3.54428 242.151 3.70428C241.885 3.90694 241.565 4.15761 241.191 4.45628C240.829 4.74428 240.445 5.04828 240.039 5.36828C239.645 5.67761 239.261 5.98161 238.887 6.28028C238.514 6.57894 238.194 6.84561 237.927 7.08028C237.65 7.32561 237.463 7.52828 237.367 7.68828C237.271 7.83761 237.271 7.98694 237.367 8.13628C237.474 8.28561 237.671 8.48828 237.959 8.74428C238.194 8.94694 238.493 9.19761 238.855 9.49628C239.229 9.79494 239.629 10.1256 240.055 10.4883C240.493 10.8403 240.935 11.2083 241.383 11.5923C241.842 11.9656 242.279 12.3389 242.695 12.7123C243.122 13.0749 243.501 13.4163 243.831 13.7363L241.959 15.4483C241.511 14.9469 241.047 14.4509 240.567 13.9603C240.322 13.7149 240.002 13.4163 239.607 13.0643C239.223 12.7016 238.802 12.3229 238.343 11.9283C237.895 11.5336 237.447 11.1443 236.999 10.7603C236.551 10.3656 236.146 10.0136 235.783 9.70428C235.25 9.25628 234.903 8.84561 234.743 8.47228C234.594 8.09894 234.615 7.73094 234.807 7.36828C235.01 6.99494 235.378 6.58961 235.911 6.15228C236.231 5.90694 236.594 5.61894 236.999 5.28828C237.405 4.94694 237.821 4.60028 238.247 4.24828C238.674 3.88561 239.079 3.53894 239.463 3.20828C239.847 2.86694 240.173 2.56828 240.439 2.31228C240.674 2.07761 240.909 1.83761 241.143 1.59228C241.378 1.34694 241.554 1.13361 241.671 0.952275L243.543 2.60028Z" fill="#EE6158"/>
</svg>
