<svg width="550" height="118" viewBox="0 0 550 118" fill="none" xmlns="http://www.w3.org/2000/svg">
<g clip-path="url(#clip0_522_861)">
<path d="M287.905 89.1544H304.025V53.2012H311.817L305.996 46.5614L306.016 31.7903H297.458L297.622 38.6852L276.179 20.4601L241.68 53.2012H250.303L250.496 80.5" stroke="#3A3A3A" stroke-width="2" stroke-linecap="round" stroke-linejoin="round"/>
<path d="M-2.5 117C52.365 117 46.9817 76.4999 67.0001 76.4999C87.0184 76.4999 91.5361 116.5 118.162 116.5C133.797 116.5 139.769 108.17 155 87.9999C155 87.9999 169.042 65.4078 181.5 65.4078C214.736 64.7405 224.704 87.9999 249.226 87.9999C249.226 87.9999 279.599 89.9774 289.25 67.3366C289.25 67.3366 293.152 60.0754 293.152 53.357C293.152 47.2536 290.298 42.7399 284.248 42.7202C281.563 42.7137 280.542 44.251 279.723 44.8921C278.65 45.7294 277.89 45.6444 276.495 44.7351C275.566 44.1267 273.615 42.7072 271.349 42.7072C265.541 42.7072 262.385 47.2536 262.385 53.357C262.385 56.7064 264.252 58.9502 265.797 63.0126C266.727 65.4657 266.969 66.9049 268.075 71.5495C268.691 74.1204 269.994 77.123 272.659 77.123C275.323 77.123 275.127 70.0384 275.729 66.9703C276.004 65.5508 276.476 64.8966 276.941 64.3274C277.36 63.8041 278.158 63.8041 278.584 64.3274C279.049 64.8966 281.236 70.8822 281.236 70.8822C286.048 81.048 299.196 67.5394 304.525 66.5451C317.509 64.1312 325.886 65.8745 359.237 84.3189C397.358 105.402 408.869 72 408.869 72C419.878 42.7202 434.715 7.98554 451.407 42.0401C463.417 66.5451 472.926 47.9405 474.928 42.7202C476.929 37.5 484.937 12 496.447 12C507.957 12 516.965 37.5 527.975 37.5C536.783 37.5 546.992 18.5 556 5.5" stroke="#3A3A3A" stroke-width="2" stroke-miterlimit="10" stroke-linecap="round"/>
<rect x="206" y="11" width="140" height="86" stroke="#3A3A3A" stroke-width="2"/>
<path d="M203 1H349C352.866 1 356 4.13401 356 8V107H196V8C196 4.13401 199.134 1 203 1Z" stroke="#3A3A3A" stroke-width="2"/>
<circle cx="276" cy="6" r="2" fill="#3A3A3A"/>
<path d="M192 107H360C363.866 107 367 110.134 367 114V117H185V114C185 110.134 188.134 107 192 107Z" stroke="#3A3A3A" stroke-width="2"/>
</g>
<defs>
<clipPath id="clip0_522_861">
<rect width="556" height="118" fill="white"/>
</clipPath>
</defs>
</svg>
